<?xml version="1.0" encoding="utf-8"?>
<!-- Generator: Adobe Illustrator 25.0.1, SVG Export Plug-In . SVG Version: 6.00 Build 0)  -->
<svg version="1.1" id="Capa_1" xmlns="http://www.w3.org/2000/svg" xmlns:xlink="http://www.w3.org/1999/xlink" x="0px" y="0px"
	 viewBox="0 0 185 37" style="enable-background:new 0 0 185 37;" xml:space="preserve">
<style type="text/css">
	.st0{clip-path:url(#SVGID_2_);}
	.st1{fill:#555555;}
	.st2{fill:#D9D9D9;}
	.st3{font-family:'ArialMT';}
	.st4{font-size:16px;}
	.st5{fill:#1DA1F2;}
	.st6{clip-path:url(#SVGID_4_);}
	.st7{clip-path:url(#SVGID_6_);}
	.st8{clip-path:url(#SVGID_8_);}
</style>
<g>
	<defs>
		<rect id="SVGID_1_" y="0" width="185" height="37"/>
	</defs>
	<clipPath id="SVGID_2_">
		<use xlink:href="#SVGID_1_"  style="overflow:visible;"/>
	</clipPath>
	<g transform="translate(-102 -176)" class="st0">
		<rect x="102" y="177" class="st1" width="184" height="33"/>
		<text transform="matrix(1 0 0 1 121.341 199)" class="st2 st3 st4">@soyvicgeek</text>
		<rect x="102" y="177" class="st5" width="4" height="33"/>
		<g>
			<defs>
				<rect id="SVGID_3_" x="253" y="185" width="14" height="17"/>
			</defs>
			<clipPath id="SVGID_4_">
				<use xlink:href="#SVGID_3_"  style="overflow:visible;"/>
			</clipPath>
			<g class="st6">
				<g>
					<defs>
						<rect id="SVGID_5_" x="253" y="185" width="14" height="17"/>
					</defs>
					<clipPath id="SVGID_6_">
						<use xlink:href="#SVGID_5_"  style="overflow:visible;"/>
					</clipPath>
					<g class="st7">
						<g>
							<defs>
								<rect id="SVGID_7_" x="253" y="185" width="14" height="17"/>
							</defs>
							<clipPath id="SVGID_8_">
								<use xlink:href="#SVGID_7_"  style="overflow:visible;"/>
							</clipPath>
							<g class="st8">
								<path class="st5" d="M265.6,190c0,0.2,0,0.3,0,0.5c0,4.6-2.9,9.9-8.2,9.9c-1.6,0-3.1-0.6-4.4-1.6c0.2,0,0.5,0,0.7,0
									c1.3,0,2.6-0.6,3.6-1.5c-1.3,0-2.3-1-2.7-2.4c0.2,0,0.4,0.1,0.5,0.1c0.3,0,0.5,0,0.8-0.1c-1.3-0.3-2.3-1.7-2.3-3.4v0
									c0.4,0.3,0.8,0.4,1.3,0.4c-0.8-0.6-1.3-1.7-1.3-2.9c0-0.6,0.1-1.2,0.4-1.8c1.4,2.1,3.5,3.5,5.9,3.6c0-0.3-0.1-0.5-0.1-0.8
									c0-1.9,1.3-3.5,2.9-3.5c0.8,0,1.6,0.4,2.1,1.1c0.6-0.2,1.3-0.4,1.8-0.8c-0.2,0.8-0.7,1.5-1.3,1.9c0.6-0.1,1.1-0.3,1.7-0.5
									C266.6,188.9,266.1,189.5,265.6,190z"/>
							</g>
						</g>
					</g>
				</g>
			</g>
		</g>
	</g>
</g>
</svg>
